<svg xmlns="http://www.w3.org/2000/svg"
  viewBox="0 0 117.658 273.869"
  style="fill:#FFF;"
>
  <path
    d="M12.5 255.898c3.266 0 6.527-1.272 8.979-3.802 27.502-28.358 42.52-51.21 50.699-67.328l8.177 1.438c-2.831 15.304-8.032 39.134-17.399 71.704-1.91 6.634 1.922 13.561 8.557 15.469 1.153.331 2.317.49 3.46.49 5.432 0 10.433-3.568 12.009-9.048 18.521-64.395 21.466-99.874 21.165-101.143a218.07 218.07 0 0 0-7.279-67.708 51.38 51.38 0 0 0 5.418-5.317c5.582-6.326 11.393-16.448 11.372-29.9.004-7.978-2.032-16.926-6.82-26.621-4.789-9.709-12.296-20.216-23.376-31.688A8 8 0 1 0 75.955 13.56c10.201 10.555 16.668 19.799 20.533 27.646 3.867 7.862 5.163 14.277 5.169 19.549-.02 8.788-3.603 14.957-7.411 19.361a34.611 34.611 0 0 1-5.228 4.851c-.091.068-.174.127-.261.19L55.574 96.472a8.023 8.023 0 0 0-1.592.473h-.002s-.183.076-.617.247a120.148 120.148 0 0 1-10.545 3.57c-4.827 1.404-10.457 2.544-14.211 2.514-1.132.004-2.07-.097-2.689-.229a5.51 5.51 0 0 1-.308-.073c.055-.984.552-3.254 2.119-6.525 1.703-3.614 4.6-8.433 8.949-14.41a8 8 0 0 0-12.942-9.406c-4.748 6.539-8.15 12.075-10.475 16.984-2.297 4.915-3.622 9.216-3.654 13.621-.008 2.552.524 5.187 1.761 7.532 1.845 3.58 5.136 5.925 8.174 7.039 3.088 1.157 6.1 1.456 9.065 1.47 7.362-.042 14.882-1.994 20.941-3.823.517-.159 1.016-.317 1.507-.474a165.091 165.091 0 0 1 4.183 46.179c-3.874 11.081-15.847 36.479-51.717 73.545-4.804 4.959-4.677 12.872.282 17.675a12.476 12.476 0 0 0 8.697 3.517z"/>
  <ellipse
    transform="rotate(-86.893 64.715 65.098)"
    cx="64.712"
    cy="65.096"
    rx="22.495"
    ry="22.495" />
</svg>